<svg width="43" height="12" viewBox="0 0 43 12" fill="none" xmlns="http://www.w3.org/2000/svg">
<path d="M9.84055 11.7263V2.99898H13.6246C14.2894 2.99898 14.8477 3.08847 15.2994 3.26745C15.7539 3.44642 16.0962 3.69926 16.3263 4.02597C16.5593 4.35267 16.6758 4.73761 16.6758 5.1808C16.6758 5.50182 16.6048 5.79443 16.4627 6.05864C16.3235 6.32284 16.1275 6.54443 15.8746 6.72341C15.6218 6.89955 15.3263 7.02171 14.9883 7.08989V7.17512C15.3633 7.18932 15.7042 7.28449 16.011 7.46063C16.3178 7.63392 16.5621 7.87398 16.744 8.1808C16.9258 8.48477 17.0167 8.84273 17.0167 9.25466C17.0167 9.73193 16.8917 10.1567 16.6417 10.5288C16.3945 10.901 16.0423 11.1936 15.5849 11.4067C15.1275 11.6197 14.582 11.7263 13.9485 11.7263H9.84055ZM12.2099 9.83421H13.3178C13.7156 9.83421 14.0138 9.76034 14.2127 9.61262C14.4116 9.46205 14.511 9.24046 14.511 8.94784C14.511 8.7433 14.4641 8.57 14.3704 8.42796C14.2766 8.28591 14.1431 8.17796 13.9698 8.10409C13.7994 8.03023 13.5934 7.9933 13.3519 7.9933H12.2099V9.83421ZM12.2099 6.52739H13.1815C13.3888 6.52739 13.5721 6.49472 13.7312 6.42938C13.8903 6.36404 14.0138 6.27029 14.1019 6.14813C14.1928 6.02313 14.2383 5.87114 14.2383 5.69216C14.2383 5.42227 14.1417 5.21631 13.9485 5.07426C13.7553 4.92938 13.511 4.85693 13.2156 4.85693H12.2099V6.52739Z" fill="white"/>
<path d="M16.4982 0H19.1403L21.8448 6.54443H21.913L24.6175 0H27.2596L23.055 8.98193V11.7263H20.7028V8.98193L16.4982 0Z" fill="white"/>
<path fill-rule="evenodd" clip-rule="evenodd" d="M2.55682 11.7263H0L2.88068 2.99898H6.11932L9 11.7263H6.44318L5.93889 10.0558H3.06111L2.55682 11.7263ZM4.46591 5.40239H4.53409L5.40373 8.28307H3.59627L4.46591 5.40239Z" fill="white"/>
<path d="M31.7347 5.72647C31.712 5.44238 31.6055 5.22079 31.4151 5.0617C31.2276 4.90261 30.9421 4.82306 30.5586 4.82306C30.3143 4.82306 30.114 4.85289 29.9577 4.91255C29.8043 4.96937 29.6907 5.0475 29.6168 5.14693C29.543 5.24636 29.5046 5.36 29.5018 5.48784C29.4961 5.59295 29.5146 5.68812 29.5572 5.77335C29.6026 5.85574 29.6737 5.93102 29.7702 5.9992C29.8668 6.06454 29.9904 6.1242 30.141 6.17818C30.2915 6.23216 30.4705 6.28045 30.6779 6.32307L31.3938 6.47648C31.8768 6.57875 32.2901 6.71369 32.6339 6.8813C32.9776 7.04892 33.2589 7.24636 33.4776 7.47363C33.6964 7.69807 33.8569 7.95091 33.9592 8.23216C34.0643 8.51341 34.1183 8.82023 34.1211 9.15261C34.1183 9.72648 33.9748 10.2123 33.6907 10.61C33.4066 11.0077 33.0004 11.3103 32.4719 11.5177C31.9464 11.7251 31.3143 11.8287 30.5756 11.8287C29.8171 11.8287 29.1552 11.7165 28.5898 11.4921C28.0273 11.2677 27.5898 10.9225 27.2773 10.4566C26.9677 9.98784 26.8114 9.38841 26.8086 8.65829H29.0586C29.0728 8.92534 29.1396 9.14977 29.2589 9.33159C29.3782 9.51341 29.5458 9.65119 29.7617 9.74494C29.9805 9.83869 30.2404 9.88557 30.5415 9.88557C30.7944 9.88557 31.006 9.85432 31.1765 9.79182C31.3469 9.72932 31.4762 9.64267 31.5643 9.53187C31.6523 9.42108 31.6978 9.29466 31.7006 9.15261C31.6978 9.01909 31.6538 8.90261 31.5685 8.80318C31.4862 8.70091 31.3498 8.61 31.1594 8.53045C30.9691 8.44807 30.712 8.37136 30.3881 8.30034L29.5188 8.11284C28.7461 7.94523 28.1367 7.6654 27.6907 7.27335C27.2475 6.87846 27.0273 6.34011 27.0302 5.65829C27.0273 5.10432 27.1751 4.61994 27.4734 4.20517C27.7745 3.78755 28.1907 3.46227 28.7219 3.22931C29.256 2.99636 29.8683 2.87988 30.5586 2.87988C31.2631 2.87988 31.8725 2.99778 32.3867 3.23358C32.9009 3.46937 33.2972 3.80176 33.5756 4.23074C33.8569 4.65687 33.9989 5.15545 34.0018 5.72647H31.7347Z" fill="white"/>
<path d="M39.7269 5.72647C39.7042 5.44238 39.5977 5.22079 39.4073 5.0617C39.2198 4.90261 38.9343 4.82306 38.5508 4.82306C38.3065 4.82306 38.1062 4.85289 37.9499 4.91255C37.7965 4.96937 37.6829 5.0475 37.609 5.14693C37.5352 5.24636 37.4968 5.36 37.494 5.48784C37.4883 5.59295 37.5067 5.68812 37.5494 5.77335C37.5948 5.85574 37.6658 5.93102 37.7624 5.9992C37.859 6.06454 37.9826 6.1242 38.1332 6.17818C38.2837 6.23216 38.4627 6.28045 38.6701 6.32307L39.386 6.47648C39.869 6.57875 40.2823 6.71369 40.6261 6.8813C40.9698 7.04892 41.2511 7.24636 41.4698 7.47363C41.6886 7.69807 41.8491 7.95091 41.9513 8.23216C42.0565 8.51341 42.1104 8.82023 42.1133 9.15261C42.1104 9.72648 41.967 10.2123 41.6829 10.61C41.3988 11.0077 40.9925 11.3103 40.4641 11.5177C39.9386 11.7251 39.3065 11.8287 38.5678 11.8287C37.8093 11.8287 37.1474 11.7165 36.582 11.4921C36.0195 11.2677 35.582 10.9225 35.2695 10.4566C34.9599 9.98784 34.8036 9.38841 34.8008 8.65829H37.0508C37.065 8.92534 37.1317 9.14977 37.2511 9.33159C37.3704 9.51341 37.538 9.65119 37.7539 9.74494C37.9727 9.83869 38.2326 9.88557 38.5337 9.88557C38.7866 9.88557 38.9982 9.85432 39.1687 9.79182C39.3391 9.72932 39.4684 9.64267 39.5565 9.53187C39.6445 9.42108 39.69 9.29466 39.6928 9.15261C39.69 9.01909 39.6459 8.90261 39.5607 8.80318C39.4783 8.70091 39.342 8.61 39.1516 8.53045C38.9613 8.44807 38.7042 8.37136 38.3803 8.30034L37.511 8.11284C36.7383 7.94523 36.1289 7.6654 35.6829 7.27335C35.2397 6.87846 35.0195 6.34011 35.0224 5.65829C35.0195 5.10432 35.1673 4.61994 35.4656 4.20517C35.7667 3.78755 36.1829 3.46227 36.7141 3.22931C37.2482 2.99636 37.8604 2.87988 38.5508 2.87988C39.2553 2.87988 39.8647 2.99778 40.3789 3.23358C40.8931 3.46937 41.2894 3.80176 41.5678 4.23074C41.8491 4.65687 41.9911 5.15545 41.994 5.72647H39.7269Z" fill="white"/>
</svg>
