<svg width="10" height="12" viewBox="0 0 10 12" fill="none" xmlns="http://www.w3.org/2000/svg">
<path d="M0.0962592 1.42396C-0.214136 0.76088 0.269807 0 1.00194 0H1.40296C1.80772 0 2.17257 0.243995 2.32716 0.61807L4.76326 6.51293C4.77114 6.532 4.78974 6.54443 4.81037 6.54443C4.831 6.54443 4.8496 6.532 4.85748 6.51293L7.29358 0.61807C7.44817 0.243996 7.81301 0 8.21777 0H8.6188C9.35093 0 9.83487 0.76088 9.52448 1.42396L6.08082 8.78045C6.0187 8.91315 5.98651 9.05788 5.98651 9.20441V10.7263C5.98651 11.2785 5.53879 11.7263 4.98651 11.7263H4.63423C4.08195 11.7263 3.63423 11.2785 3.63423 10.7263V9.20441C3.63423 9.05788 3.60203 8.91315 3.53991 8.78045L0.0962592 1.42396Z" fill="white"/>
</svg>
